<?xml version="1.0" encoding="UTF-8"?>
<svg version="1.1" xmlns="http://www.w3.org/2000/svg" width="700" height="128">
<path d="M0 0 C7.95233078 -1.55381213 16.18910686 -2.63961245 24 0 C30.54013814 5.24864789 34.18162231 13.30368015 38.08154297 20.56591797 C41.18911394 26.1285412 44.85063563 31.28357288 48.5 36.5 C56.79446009 48.58174596 64.87027333 60.80541 73 73 C73.33 50.89 73.66 28.78 74 6 C71.36 6 68.72 6 66 6 C64.66226218 5.87345723 63.32542701 5.7209045 62 5.5 C61.01 5.335 60.02 5.17 59 5 C59 3.35 59 1.7 59 0 C69.89 0 80.78 0 92 0 C92 1.65 92 3.3 92 5 C88.04 5.33 84.08 5.66 80 6 C80 35.37 80 64.74 80 95 C73 95 73 95 71.1105957 93.44970703 C70.63710693 92.72638184 70.16361816 92.00305664 69.67578125 91.2578125 C68.85533325 90.04411987 68.85533325 90.04411987 68.01831055 88.8059082 C67.45539307 87.9212085 66.89247559 87.03650879 66.3125 86.125 C65.70510986 85.21387451 65.09771973 84.30274902 64.47192383 83.36401367 C62.62706673 80.58914246 60.81326602 77.79557792 59 75 C58.01104623 73.5121684 57.01909172 72.02632478 56.0234375 70.54296875 C54.0947808 67.66886612 52.1764482 64.78833272 50.265625 61.90234375 C46.36646552 56.03036612 42.40236055 50.20273516 38.4375 44.375 C37.76549561 43.38669189 37.09349121 42.39838379 36.40112305 41.38012695 C30.62819636 32.90090222 24.81154562 24.45315727 19 16 C18.67 39.76 18.34 63.52 18 88 C23.28 88.33 28.56 88.66 34 89 C34 90.65 34 92.3 34 94 C22.78 94 11.56 94 0 94 C0 92.35 0 90.7 0 89 C5.94 88.505 5.94 88.505 12 88 C11.67 60.94 11.34 33.88 11 6 C7.37 5.67 3.74 5.34 0 5 C0 3.35 0 1.7 0 0 Z " fill="#202020" transform="translate(1,1)"/>
<path d="M0 0 C7.10822405 5.76957545 11.09032588 12.80888421 12.54296875 21.83203125 C13.8141641 34.15556391 13.08726388 46.29773677 5.5625 56.5859375 C0.51603774 62.31282163 -5.17568876 66.09346887 -12.86328125 66.80859375 C-19.99454515 67.09966575 -25.91984706 66.10797577 -32.17578125 62.55859375 C-33.16578125 61.56859375 -34.15578125 60.57859375 -35.17578125 59.55859375 C-35.17578125 70.11859375 -35.17578125 80.67859375 -35.17578125 91.55859375 C-31.21578125 92.21859375 -27.25578125 92.87859375 -23.17578125 93.55859375 C-23.17578125 94.87859375 -23.17578125 96.19859375 -23.17578125 97.55859375 C-34.72578125 97.55859375 -46.27578125 97.55859375 -58.17578125 97.55859375 C-58.17578125 96.23859375 -58.17578125 94.91859375 -58.17578125 93.55859375 C-52.73078125 93.06359375 -52.73078125 93.06359375 -47.17578125 92.55859375 C-47.17578125 64.17859375 -47.17578125 35.79859375 -47.17578125 6.55859375 C-51.13578125 6.22859375 -55.09578125 5.89859375 -59.17578125 5.55859375 C-58.84578125 3.90859375 -58.51578125 2.25859375 -58.17578125 0.55859375 C-55.61502028 -0.11544909 -53.05251542 -0.78082025 -50.48828125 -1.44140625 C-49.76705078 -1.6321875 -49.04582031 -1.82296875 -48.30273438 -2.01953125 C-44.5349504 -2.98298286 -41.09954606 -3.80152233 -37.17578125 -3.44140625 C-35.20755239 -1.47317739 -35.51329744 1.90668084 -35.17578125 4.55859375 C-34.59183594 3.96111328 -34.59183594 3.96111328 -33.99609375 3.3515625 C-24.56829347 -5.57660782 -11.0118366 -7.29509462 0 0 Z M-36.17578125 10.55859375 C-36.97642583 13.6673637 -36.97164025 16.72755756 -36.98046875 19.92578125 C-36.99473907 20.83812531 -37.0090094 21.75046936 -37.02371216 22.69046021 C-37.0446209 24.61857544 -37.05218625 26.54687509 -37.04736328 28.47509766 C-37.05076417 31.41881324 -37.128642 34.35444128 -37.2109375 37.296875 C-37.67530883 46.76541207 -37.67530883 46.76541207 -34.21582031 55.18066406 C-31.87124814 56.77383177 -29.88228652 57.74883391 -27.17578125 58.55859375 C-26.18578125 58.88859375 -25.19578125 59.21859375 -24.17578125 59.55859375 C-17.72022562 60.33529768 -12.45594809 59.47836826 -7.17578125 55.55859375 C0.30481363 47.88813606 0.70342608 37.77106533 0.82421875 27.55859375 C0.38321806 19.38538101 -1.40513552 12.58401413 -7.17578125 6.55859375 C-16.60996418 -0.50269124 -28.32009373 2.39599375 -36.17578125 10.55859375 Z " fill="#202020" transform="translate(681.17578125,30.44140625)"/>
<path d="M0 0 C7.97031013 6.46931011 11.75340544 14.44535696 12.82421875 24.55859375 C13.68959246 35.80845198 12.43558757 47.34327828 5.5625 56.62109375 C0.46470614 62.30312915 -5.16362446 66.09234661 -12.86328125 66.80859375 C-19.99454515 67.09966575 -25.91984706 66.10797577 -32.17578125 62.55859375 C-33.16578125 61.56859375 -34.15578125 60.57859375 -35.17578125 59.55859375 C-35.50578125 70.44859375 -35.83578125 81.33859375 -36.17578125 92.55859375 C-33.53578125 92.55859375 -30.89578125 92.55859375 -28.17578125 92.55859375 C-25.17578125 93.05859375 -25.17578125 93.05859375 -23.17578125 93.55859375 C-23.17578125 94.87859375 -23.17578125 96.19859375 -23.17578125 97.55859375 C-34.72578125 97.55859375 -46.27578125 97.55859375 -58.17578125 97.55859375 C-58.17578125 96.23859375 -58.17578125 94.91859375 -58.17578125 93.55859375 C-52.73078125 93.06359375 -52.73078125 93.06359375 -47.17578125 92.55859375 C-47.28311169 81.49317704 -47.3957097 70.42782786 -47.51512051 59.36253452 C-47.57039433 54.22502906 -47.62382132 49.08751796 -47.6730957 43.94995117 C-47.72067365 38.99622913 -47.77301381 34.04257863 -47.828722 29.08894157 C-47.84917543 27.19463814 -47.86788345 25.30031507 -47.88485527 23.40597725 C-47.90883341 20.76219675 -47.93889655 18.11855277 -47.97045898 15.47485352 C-47.97621445 14.68363602 -47.98196991 13.89241852 -47.98789978 13.07722473 C-47.7108804 9.52188679 -47.7108804 9.52188679 -49.17578125 6.55859375 C-50.85762073 6.32572367 -52.54702285 6.14595209 -54.23828125 5.99609375 C-55.15738281 5.91230469 -56.07648437 5.82851563 -57.0234375 5.7421875 C-57.73371094 5.68160156 -58.44398438 5.62101562 -59.17578125 5.55859375 C-58.84578125 3.90859375 -58.51578125 2.25859375 -58.17578125 0.55859375 C-55.61502028 -0.11544909 -53.05251542 -0.78082025 -50.48828125 -1.44140625 C-49.76705078 -1.6321875 -49.04582031 -1.82296875 -48.30273438 -2.01953125 C-44.50727164 -2.99006053 -41.12962686 -3.69095864 -37.17578125 -3.44140625 C-36.51578125 -0.80140625 -35.85578125 1.83859375 -35.17578125 4.55859375 C-34.22703125 3.63046875 -33.27828125 2.70234375 -32.30078125 1.74609375 C-23.13865206 -6.0992112 -9.99310803 -6.62020981 0 0 Z M-36.17578125 10.55859375 C-36.93438628 13.6973484 -36.87660975 16.77941602 -36.83984375 19.99609375 C-36.84462738 20.91318115 -36.84941101 21.83026855 -36.8543396 22.77514648 C-36.85773812 24.71176878 -36.84853896 26.64844847 -36.82763672 28.58496094 C-36.80086945 31.54882759 -36.82738502 34.50890735 -36.859375 37.47265625 C-36.85607089 39.35547711 -36.84966464 41.23829561 -36.83984375 43.12109375 C-36.8499649 44.00659912 -36.86008606 44.89210449 -36.87051392 45.80444336 C-36.80873909 50.95306085 -36.80873909 50.95306085 -33.83740234 55.0390625 C-27.56304293 58.62112203 -22.39803357 60.65249772 -15.17578125 59.55859375 C-9.73263507 57.91685487 -6.14879512 55.19795483 -3.13671875 50.38671875 C2.08689177 40.44911826 1.89987468 27.12280324 -1.17578125 16.55859375 C-3.29990311 10.35615793 -6.39083703 6.68595339 -12.17578125 3.55859375 C-20.8344748 0.67236257 -29.99529404 4.10185559 -36.17578125 10.55859375 Z " fill="#202020" transform="translate(600.17578125,30.44140625)"/>
<path d="M0 0 C0.99 0 1.98 0 3 0 C3 4.95 3 9.9 3 15 C4.32 15 5.64 15 7 15 C7 14.01 7 13.02 7 12 C10.63 12 14.26 12 18 12 C18 46.32 18 80.64 18 116 C16.68 116 15.36 116 14 116 C13.93941406 114.97519531 13.87882812 113.95039062 13.81640625 112.89453125 C13.73194974 111.53384305 13.64730433 110.17316657 13.5625 108.8125 C13.52318359 108.13896484 13.48386719 107.46542969 13.44335938 106.77148438 C13.2078078 103.05701727 12.73420901 99.67104506 12 96 C11.67 102.6 11.34 109.2 11 116 C9.68 116 8.36 116 7 116 C6.67 106.43 6.34 96.86 6 87 C5.01 87 4.02 87 3 87 C3.495 94.92 3.495 94.92 4 103 C1.525 103.495 1.525 103.495 -1 104 C-0.67 95.42 -0.34 86.84 0 78 C1.98 78 3.96 78 6 78 C6 77.34 6 76.68 6 76 C3.66705225 75.95758277 1.33297433 75.95907063 -1 76 C-2.58403524 77.58403524 -2.21974935 79.2771638 -2.31640625 81.47265625 C-2.35830078 82.37177734 -2.40019531 83.27089844 -2.44335938 84.19726562 C-2.48267578 85.14279297 -2.52199219 86.08832031 -2.5625 87.0625 C-2.60568359 88.01189453 -2.64886719 88.96128906 -2.69335938 89.93945312 C-2.79979276 92.29281353 -2.90181008 94.64628354 -3 97 C-4.485 96.505 -4.485 96.505 -6 96 C-6.14539953 92.58378212 -6.23409725 89.16836009 -6.3125 85.75 C-6.35439453 84.78191406 -6.39628906 83.81382813 -6.43945312 82.81640625 C-6.56390832 75.5980051 -6.56390832 75.5980051 -3.48046875 72.328125 C-2.66191406 71.88984375 -1.84335938 71.4515625 -1 71 C-4.93075644 71.57452746 -4.93075644 71.57452746 -8 74 C-8.45811675 75.97235333 -8.45811675 75.97235333 -8.625 78.125 C-8.74875 79.40375 -8.8725 80.6825 -9 82 C-9.99 82 -10.98 82 -12 82 C-12.77162899 73.16913484 -12.77162899 73.16913484 -9.9375 68.875 C-6.35870823 66.59066483 -4.16952449 66.59122309 0 67 C0 66.34 0 65.68 0 65 C-10.89 65.495 -10.89 65.495 -22 66 C-22.495 63.525 -22.495 63.525 -23 61 C-18.25 59.875 -18.25 59.875 -16 61 C-13.28737884 61.2322646 -10.59226874 61.41936235 -7.875 61.5625 C-6.74384766 61.62727539 -6.74384766 61.62727539 -5.58984375 61.69335938 C-3.72678112 61.7994832 -1.86341476 61.90025001 0 62 C0 61.01 0 60.02 0 59 C-5.28 59 -10.56 59 -16 59 C-16 58.01 -16 57.02 -16 56 C-10.72 56 -5.44 56 0 56 C0 55.01 0 54.02 0 53 C-2.87526069 53.1416533 -5.75013536 53.28818532 -8.625 53.4375 C-9.43324219 53.47681641 -10.24148437 53.51613281 -11.07421875 53.55664062 C-14.62064644 53.74405347 -18.01604266 54.00272121 -21.5234375 54.59765625 C-22.74933594 54.79681641 -22.74933594 54.79681641 -24 55 C-25 54 -25 54 -25.125 51.5 C-25 49 -25 49 -24 48 C-21.5 47.875 -21.5 47.875 -19 48 C-18.67 48.33 -18.34 48.66 -18 49 C-16.65984779 49.15582303 -15.31241097 49.25044142 -13.96484375 49.31640625 C-12.75151367 49.37924805 -12.75151367 49.37924805 -11.51367188 49.44335938 C-10.2384668 49.50233398 -10.2384668 49.50233398 -8.9375 49.5625 C-7.65649414 49.62727539 -7.65649414 49.62727539 -6.34960938 49.69335938 C-4.23327963 49.79976702 -2.11666187 49.90041731 0 50 C0 49.01 0 48.02 0 47 C-2.64 47 -5.28 47 -8 47 C-7.67 46.01 -7.34 45.02 -7 44 C-4.69 44 -2.38 44 0 44 C0 43.34 0 42.68 0 42 C-0.93851807 42.05329468 -0.93851807 42.05329468 -1.89599609 42.10766602 C-4.72204795 42.26496067 -7.54848174 42.41383248 -10.375 42.5625 C-11.85226563 42.64661133 -11.85226563 42.64661133 -13.359375 42.73242188 C-14.77089844 42.80493164 -14.77089844 42.80493164 -16.2109375 42.87890625 C-17.08024902 42.9260376 -17.94956055 42.97316895 -18.84521484 43.02172852 C-21 43 -21 43 -23 42 C-23 40.35 -23 38.7 -23 37 C-21.00045254 36.95745644 -18.99958364 36.95919217 -17 37 C-16.67 37.33 -16.34 37.66 -16 38 C-13.30345146 38.07319621 -10.63308542 38.09242537 -7.9375 38.0625 C-7.17888672 38.05798828 -6.42027344 38.05347656 -5.63867188 38.04882812 C-3.75908129 38.0370068 -1.87953101 38.01907078 0 38 C0 37.34 0 36.68 0 36 C-5.94 36.495 -5.94 36.495 -12 37 C-13 32 -13 32 -12.6875 28.4375 C-12.790625 27.303125 -12.89375 26.16875 -13 25 C-15.86615486 22.50459629 -15.86615486 22.50459629 -19 21 C-18.67 19.35 -18.34 17.7 -18 16 C-14.73514566 16.24184106 -13.73637333 17.25136496 -11.3125 19.5625 C-8.427435 23.19750545 -8.30825082 26.45330041 -8 31 C-6.03177114 32.96822886 -2.65191291 32.66248381 0 33 C-0.85372531 30.72622647 -0.85372531 30.72622647 -3.54296875 30.04296875 C-6 28 -6 28 -6.40869141 25.79150391 C-6.49310312 22.95102373 -6.43430902 20.15158717 -6.3125 17.3125 C-6.28994141 16.32443359 -6.26738281 15.33636719 -6.24414062 14.31835938 C-6.18517988 11.87738441 -6.10295048 9.43945132 -6 7 C-5.01 6.67 -4.02 6.34 -3 6 C-2.67 12.6 -2.34 19.2 -2 26 C-1.34 26.33 -0.68 26.66 0 27 C0 18.09 0 9.18 0 0 Z M4 18 C4 19.32 4 20.64 4 22 C4.99 21.67 5.98 21.34 7 21 C6.67 20.01 6.34 19.02 6 18 C5.34 18 4.68 18 4 18 Z M3 25 C3 25.66 3 26.32 3 27 C3.99 27 4.98 27 6 27 C6 26.34 6 25.68 6 25 C5.01 25 4.02 25 3 25 Z M3 30 C3 30.99 3 31.98 3 33 C3.99 33 4.98 33 6 33 C5.67 32.01 5.34 31.02 5 30 C4.34 30 3.68 30 3 30 Z M3 36 C3 36.99 3 37.98 3 39 C4.32 39 5.64 39 7 39 C6.67 38.01 6.34 37.02 6 36 C5.01 36 4.02 36 3 36 Z M3 42 C3 42.66 3 43.32 3 44 C3.99 44 4.98 44 6 44 C6 43.34 6 42.68 6 42 C5.01 42 4.02 42 3 42 Z M3 47 C3 47.99 3 48.98 3 50 C3.99 50 4.98 50 6 50 C6 49.01 6 48.02 6 47 C5.01 47 4.02 47 3 47 Z M3 53 C3 53.99 3 54.98 3 56 C3.99 56 4.98 56 6 56 C6 55.01 6 54.02 6 53 C5.01 53 4.02 53 3 53 Z M3 59 C3 59.99 3 60.98 3 62 C3.99 62 4.98 62 6 62 C6 61.01 6 60.02 6 59 C5.01 59 4.02 59 3 59 Z M3 65 C3 65.66 3 66.32 3 67 C3.99 67 4.98 67 6 67 C6 66.34 6 65.68 6 65 C5.01 65 4.02 65 3 65 Z M3 70 C3 70.66 3 71.32 3 72 C3.99 72 4.98 72 6 72 C6 71.34 6 70.68 6 70 C5.01 70 4.02 70 3 70 Z M3 81 C3 81.99 3 82.98 3 84 C3.99 84 4.98 84 6 84 C6 83.01 6 82.02 6 81 C5.01 81 4.02 81 3 81 Z " fill="#640584" transform="translate(204,6)"/>
<path d="M0 0 C0.66 0 1.32 0 2 0 C2 8.91 2 17.82 2 27 C2.99 27 3.98 27 5 27 C5 20.4 5 13.8 5 7 C5.99 6.67 6.98 6.34 8 6 C8 13.59 8 21.18 8 29 C6.35 29.66 4.7 30.32 3 31 C2.67 31.66 2.34 32.32 2 33 C6.34184202 32.81535634 6.34184202 32.81535634 10 31 C10.0928125 29.205625 10.0928125 29.205625 10.1875 27.375 C10.68147167 22.96112407 12.4707679 20.54523388 15.33203125 17.25 C17 16 17 16 21 16 C21.495 17.98 21.495 17.98 22 20 C20.2675 20.8971875 20.2675 20.8971875 18.5 21.8125 C16.48178416 23.08472771 16.48178416 23.08472771 15 25 C14.37600604 28.73347646 14.58617317 32.24928385 15 36 C10.26721187 37.11896042 6.7672585 36.72720892 2 36 C2 36.99 2 37.98 2 39 C3.16917969 38.855625 4.33835938 38.71125 5.54296875 38.5625 C7.09112699 38.37484446 8.63930513 38.1873531 10.1875 38 C11.34088867 37.85691406 11.34088867 37.85691406 12.51757812 37.7109375 C16.36928811 37.24807106 20.11170851 36.87532532 24 37 C24.625 38.875 24.625 38.875 25 41 C23 43 23 43 20.84521484 43.13525391 C19.97590332 43.08288574 19.1065918 43.03051758 18.2109375 42.9765625 C17.26992188 42.925 16.32890625 42.8734375 15.359375 42.8203125 C14.37453125 42.75585938 13.3896875 42.69140625 12.375 42.625 C10.88613281 42.53992187 10.88613281 42.53992187 9.3671875 42.453125 C6.91075233 42.31140759 4.45530265 42.15997723 2 42 C2 42.66 2 43.32 2 44 C4.31 44 6.62 44 9 44 C9.33 44.99 9.66 45.98 10 47 C7.36 47 4.72 47 2 47 C2 47.99 2 48.98 2 50 C7.94 50 13.88 50 20 50 C20 49.34 20 48.68 20 48 C21.8125 47.3125 21.8125 47.3125 24 47 C25.8125 48.1875 25.8125 48.1875 27 50 C26.6875 52.1875 26.6875 52.1875 26 54 C24.34385343 54.38218767 22.67542976 54.71395102 21 55 C20.67 54.67 20.34 54.34 20 54 C18.22130274 53.84235595 16.43681524 53.74899323 14.65234375 53.68359375 C13.57275391 53.64169922 12.49316406 53.59980469 11.38085938 53.55664062 C10.24455078 53.51732422 9.10824219 53.47800781 7.9375 53.4375 C6.79732422 53.39431641 5.65714844 53.35113281 4.48242188 53.30664062 C1.65507805 53.20017161 -1.17235738 53.09815793 -4 53 C-4 53.99 -4 54.98 -4 56 C-3.11477661 55.97643433 -3.11477661 55.97643433 -2.21166992 55.95239258 C0.46295586 55.89002061 3.13742864 55.85100343 5.8125 55.8125 C7.2056543 55.77479492 7.2056543 55.77479492 8.62695312 55.73632812 C9.51962891 55.72666016 10.41230469 55.71699219 11.33203125 55.70703125 C12.15421143 55.6913208 12.9763916 55.67561035 13.82348633 55.65942383 C16.52035463 56.08142397 17.20517407 57.01588454 19 59 C22.10007201 60.20049407 22.10007201 60.20049407 25 61 C24.67 62.65 24.34 64.3 24 66 C21.8125 65.8125 21.8125 65.8125 19 65 C18.29875 64.154375 17.5975 63.30875 16.875 62.4375 C12.57314977 58.79027915 8.42301008 59.57261742 3 60 C2.67 60.66 2.34 61.32 2 62 C4.64 62 7.28 62 10 62 C10 62.99 10 63.98 10 65 C7.36 65 4.72 65 2 65 C2 65.66 2 66.32 2 67 C3.051875 66.896875 4.10375 66.79375 5.1875 66.6875 C9 67 9 67 11.9375 68.875 C14.82275119 73.24659272 14.44494135 76.90789339 14 82 C13.01 82 12.02 82 11 82 C10.896875 80.741875 10.79375 79.48375 10.6875 78.1875 C10.35469083 75.53908904 10.15541282 74.22605502 8.625 72 C6.89217787 70.73795129 6.89217787 70.73795129 4 71 C4.95132813 71.79664062 4.95132813 71.79664062 5.921875 72.609375 C8.46045193 75.52969282 8.75410228 77.44811752 9.25 81.25 C9.39953125 82.32765625 9.5490625 83.4053125 9.703125 84.515625 C9.80109375 85.33546875 9.8990625 86.1553125 10 87 C8.125 88.0625 8.125 88.0625 6 89 C5.34 88.67 4.68 88.34 4 88 C4 84.37 4 80.74 4 77 C1.36 76.67 -1.28 76.34 -4 76 C-4 76.66 -4 77.32 -4 78 C-2.02 78 -0.04 78 2 78 C2.02505615 78.61520508 2.0501123 79.23041016 2.07592773 79.86425781 C2.19218487 82.65970156 2.31477642 85.45483298 2.4375 88.25 C2.47681641 89.21808594 2.51613281 90.18617187 2.55664062 91.18359375 C2.59853516 92.11816406 2.64042969 93.05273438 2.68359375 94.015625 C2.72025146 94.87446289 2.75690918 95.73330078 2.79467773 96.61816406 C2.98703514 98.84960143 3.38846244 100.84982524 4 103 C1.525 103.495 1.525 103.495 -1 104 C-2.23104155 100.31599416 -1.90767252 97.08525024 -1.5625 93.25 C-1.46066406 92.07953125 -1.35882813 90.9090625 -1.25390625 89.703125 C-1.17011719 88.81109375 -1.08632812 87.9190625 -1 87 C-1.99 87 -2.98 87 -4 87 C-4 96.57 -4 106.14 -4 116 C-5.32 116 -6.64 116 -8 116 C-8.88021369 109.28837062 -9.11381955 102.76594019 -9 96 C-9.66 96 -10.32 96 -11 96 C-11 102.6 -11 109.2 -11 116 C-12.32 116 -13.64 116 -15 116 C-15 81.68 -15 47.36 -15 12 C-11.37 12 -7.74 12 -4 12 C-4 12.99 -4 13.98 -4 15 C-3.01 15 -2.02 15 -1 15 C-1.01160156 14.08476562 -1.02320313 13.16953125 -1.03515625 12.2265625 C-1.04417969 11.03804687 -1.05320313 9.84953125 -1.0625 8.625 C-1.07410156 7.44164062 -1.08570313 6.25828125 -1.09765625 5.0390625 C-1 2 -1 2 0 0 Z M-4 19 C-4 19.66 -4 20.32 -4 21 C-3.01 21 -2.02 21 -1 21 C-1 20.34 -1 19.68 -1 19 C-1.99 19 -2.98 19 -4 19 Z M-4 25 C-4 25.66 -4 26.32 -4 27 C-3.01 27 -2.02 27 -1 27 C-1 26.34 -1 25.68 -1 25 C-1.99 25 -2.98 25 -4 25 Z M-4 31 C-4 31.66 -4 32.32 -4 33 C-3.01 33 -2.02 33 -1 33 C-1 32.34 -1 31.68 -1 31 C-1.99 31 -2.98 31 -4 31 Z M-4 36 C-4 36.66 -4 37.32 -4 38 C-3.01 38 -2.02 38 -1 38 C-1 37.34 -1 36.68 -1 36 C-1.99 36 -2.98 36 -4 36 Z M-4 42 C-4 42.66 -4 43.32 -4 44 C-3.01 44 -2.02 44 -1 44 C-1 43.34 -1 42.68 -1 42 C-1.99 42 -2.98 42 -4 42 Z M-2 47 C-2.99 47.495 -2.99 47.495 -4 48 C-4 48.66 -4 49.32 -4 50 C-3.01 50 -2.02 50 -1 50 C-1.33 49.01 -1.66 48.02 -2 47 Z M-4 59 C-4 59.99 -4 60.98 -4 62 C-3.01 62 -2.02 62 -1 62 C-1 61.01 -1 60.02 -1 59 C-1.99 59 -2.98 59 -4 59 Z M-4 65 C-4 65.66 -4 66.32 -4 67 C-3.01 67 -2.02 67 -1 67 C-1 66.34 -1 65.68 -1 65 C-1.99 65 -2.98 65 -4 65 Z M-3 70 C-3.33 70.66 -3.66 71.32 -4 72 C-3.01 72 -2.02 72 -1 72 C-1 71.34 -1 70.68 -1 70 C-1.66 70 -2.32 70 -3 70 Z M-4 81 C-4 81.99 -4 82.98 -4 84 C-3.01 84 -2.02 84 -1 84 C-1 83.01 -1 82.02 -1 81 C-1.99 81 -2.98 81 -4 81 Z " fill="#F98900" transform="translate(246,6)"/>
<path d="M0 0 C2.05078125 0.03255208 4.1015625 0.06510417 6.15234375 0.09765625 C8.15950622 5.76180793 10.15862536 11.4287584 12.15234375 17.09765625 C12.61137589 18.40272629 12.61137589 18.40272629 13.0796814 19.73416138 C19.28686991 37.41032901 25.2229053 55.17321096 31.08398438 72.96679688 C31.41557053 73.9700148 31.74715668 74.97323273 32.08879089 76.0068512 C32.71425021 77.89964535 33.33717908 79.79327808 33.95722961 81.68785095 C34.37055794 82.93762474 34.37055794 82.93762474 34.79223633 84.21264648 C35.03202713 84.94249252 35.27181793 85.67233856 35.51887512 86.42430115 C36.0249277 88.10722732 36.0249277 88.10722732 37.15234375 89.09765625 C39.00126321 89.33129506 40.85722406 89.5106926 42.71484375 89.66015625 C44.23271484 89.78583984 44.23271484 89.78583984 45.78125 89.9140625 C46.56371094 89.97464844 47.34617187 90.03523438 48.15234375 90.09765625 C48.15234375 91.74765625 48.15234375 93.39765625 48.15234375 95.09765625 C35.28234375 95.09765625 22.41234375 95.09765625 9.15234375 95.09765625 C9.15234375 93.44765625 9.15234375 91.79765625 9.15234375 90.09765625 C13.77234375 89.76765625 18.39234375 89.43765625 23.15234375 89.09765625 C22.57484375 87.38835937 21.99734375 85.6790625 21.40234375 83.91796875 C20.65218645 81.68625078 19.90219501 79.45447706 19.15234375 77.22265625 C18.77078125 76.09472656 18.38921875 74.96679688 17.99609375 73.8046875 C17.63515625 72.72832031 17.27421875 71.65195313 16.90234375 70.54296875 C16.5671875 69.54797363 16.23203125 68.55297852 15.88671875 67.52783203 C15.15234375 65.09765625 15.15234375 65.09765625 15.15234375 63.09765625 C4.59234375 63.09765625 -5.96765625 63.09765625 -16.84765625 63.09765625 C-17.50765625 66.06765625 -18.16765625 69.03765625 -18.84765625 72.09765625 C-19.31283669 73.6419794 -19.80620194 75.17885848 -20.35546875 76.6953125 C-20.61972656 77.43330078 -20.88398438 78.17128906 -21.15625 78.93164062 C-21.42566406 79.66705078 -21.69507813 80.40246094 -21.97265625 81.16015625 C-22.38837891 82.31547852 -22.38837891 82.31547852 -22.8125 83.49414062 C-23.48601995 85.3637391 -24.16613042 87.23096128 -24.84765625 89.09765625 C-20.88765625 89.42765625 -16.92765625 89.75765625 -12.84765625 90.09765625 C-12.84765625 91.74765625 -12.84765625 93.39765625 -12.84765625 95.09765625 C-22.74765625 95.09765625 -32.64765625 95.09765625 -42.84765625 95.09765625 C-42.84765625 93.44765625 -42.84765625 91.79765625 -42.84765625 90.09765625 C-36.90765625 89.60265625 -36.90765625 89.60265625 -30.84765625 89.09765625 C-30.61804199 87.91913086 -30.38842773 86.74060547 -30.15185547 85.52636719 C-28.60934921 78.60773579 -26.24683879 71.94459386 -23.98046875 65.23828125 C-23.49922176 63.80269955 -23.01842584 62.36696656 -22.53805542 60.93109131 C-21.27763596 57.16685655 -20.01208443 53.40436921 -18.74511719 49.64233398 C-16.72393327 43.63819123 -14.71033887 37.63150101 -12.69729233 31.62462616 C-12.00116851 29.54997261 -11.30267611 27.47612926 -10.60379028 25.40240479 C-8.16067335 18.13504667 -5.82081547 10.84886363 -3.63986206 3.49798584 C-2.52951008 0.13369504 -2.52951008 0.13369504 0 0 Z M-1.84765625 16.09765625 C-3.702794 21.75643364 -5.55411079 27.41644096 -7.40185547 33.07763672 C-8.03133241 35.00441462 -8.6618629 36.93084866 -9.29345703 38.85693359 C-10.19969673 41.62117808 -11.10217386 44.38662615 -12.00390625 47.15234375 C-12.28826538 48.01697235 -12.57262451 48.88160095 -12.86560059 49.77243042 C-13.12587036 50.57310944 -13.38614014 51.37378845 -13.65429688 52.19873047 C-13.88524048 52.90488495 -14.11618408 53.61103943 -14.35412598 54.33859253 C-14.93770078 56.11409956 -14.93770078 56.11409956 -14.84765625 58.09765625 C-5.60765625 58.09765625 3.63234375 58.09765625 13.15234375 58.09765625 C11.41486602 51.72690456 9.70487327 45.49959777 7.671875 39.2421875 C7.34530159 38.23341805 7.34530159 38.23341805 7.01213074 37.20426941 C6.33208006 35.1054509 5.64854342 33.00778853 4.96484375 30.91015625 C4.49651069 29.46687282 4.02841015 28.02351391 3.56054688 26.58007812 C2.42715306 23.08506508 1.29063526 19.59107768 0.15234375 16.09765625 C-0.50765625 16.09765625 -1.16765625 16.09765625 -1.84765625 16.09765625 Z " fill="#202020" transform="translate(491.84765625,-0.09765625)"/>
<path d="M0 0 C7.33740604 6.4378007 10.55576643 15.03127595 11.35546875 24.55859375 C11.83780953 35.84808543 10.25378571 45.41157103 2.8515625 54.2890625 C-3.85051722 61.17915436 -11.5454825 63.88275187 -21.0234375 64.1015625 C-30.54271227 63.99484417 -38.31346418 61.4284887 -45.2421875 54.76953125 C-53.33374968 45.44584483 -54.69871531 34.75389399 -53.9609375 22.7890625 C-53.049853 13.70760732 -48.72518927 6.05952429 -42.0859375 -0.1484375 C-29.57260855 -10.31701265 -12.66273843 -9.08316573 0 0 Z M-35.9609375 5.7890625 C-40.36430524 13.23179182 -41.16321822 19.37231136 -41.2109375 27.9140625 C-41.2315625 28.81382813 -41.2521875 29.71359375 -41.2734375 30.640625 C-41.32895391 40.30048077 -39.53454485 48.17550157 -32.7109375 55.2265625 C-28.5750463 58.9193225 -24.52685685 59.19106837 -19.1640625 59.03125 C-14.2186718 58.48760776 -11.09614227 56.17407661 -7.7734375 52.6640625 C-1.17882065 44.37763295 -0.52275889 33.66448324 -1.17578125 23.41796875 C-2.21417886 15.02178233 -4.3834554 7.45827491 -10.3984375 1.2890625 C-19.95345585 -4.30411897 -28.78461991 -2.93889133 -35.9609375 5.7890625 Z " fill="#202020" transform="translate(154.9609375,33.2109375)"/>
<path d="M0 0 C5.46341448 4.44790993 8.42142752 9.28174881 10.4765625 15.9609375 C11.00175229 21.34413281 11.04245378 26.25987239 9.7265625 31.5234375 C-5.4534375 31.5234375 -20.6334375 31.5234375 -36.2734375 31.5234375 C-33.40147546 46.78919945 -33.40147546 46.78919945 -23.2734375 56.5234375 C-14.94304424 59.70413311 -7.36164179 58.95746514 0.7265625 55.5234375 C3.57332238 53.71604391 6.1753069 51.72549889 8.7265625 49.5234375 C9.3865625 50.8434375 10.0465625 52.1634375 10.7265625 53.5234375 C5.69298142 60.28731207 -0.10163936 64.25629252 -8.2734375 66.5234375 C-19.36478285 67.53532564 -29.63009108 66.53591109 -38.453125 59.3203125 C-45.70160349 52.16516206 -48.45002248 43.99881861 -48.65454102 33.97851562 C-48.62105194 21.53665583 -46.69873344 12.94734203 -37.78125 3.69140625 C-27.27641296 -5.3898781 -11.97929839 -7.78036906 0 0 Z M-27.984375 4.89453125 C-33.54566543 10.78046553 -36.41633297 18.48598754 -36.2734375 26.5234375 C-31.93181925 26.57296456 -27.59035175 26.60921704 -23.24853516 26.63330078 C-21.77226903 26.64334341 -20.29602271 26.65698015 -18.81982422 26.67431641 C-16.69493716 26.69864171 -14.57031365 26.7099379 -12.4453125 26.71875 C-11.1675293 26.72922363 -9.88974609 26.73969727 -8.57324219 26.75048828 C-5.48370993 26.53790579 -3.77095745 26.30813944 -1.2734375 24.5234375 C0.46393461 19.43541918 -0.39898144 14.45351371 -2.2734375 9.5234375 C-4.7116774 5.53770788 -7.13975225 3.04493271 -11.3984375 1.0859375 C-17.60462694 -0.12831696 -23.02534572 0.92051463 -27.984375 4.89453125 Z " fill="#202020" transform="translate(339.2734375,30.4765625)"/>
<path d="M0 0 C0.91523438 0.37125 1.83046875 0.7425 2.7734375 1.125 C5 3 5 3 5.48828125 6.57421875 C5.45514248 7.94616376 5.39563595 9.3176753 5.3125 10.6875 C5.28994141 11.38939453 5.26738281 12.09128906 5.24414062 12.81445312 C5.18531647 14.5438833 5.09563389 16.27221438 5 18 C2.69 18 0.38 18 -2 18 C-2.99 11.565 -2.99 11.565 -4 5 C-14.15446758 2.80332398 -14.15446758 2.80332398 -24 5 C-27.18559766 7.78739795 -27.90081784 9.30572485 -28.5 13.5 C-27.8832017 17.81758811 -27.13650165 18.96557385 -24 22 C-19.60152275 24.19733945 -14.94692958 25.76247194 -10.328125 27.4296875 C-3.34325323 30.08697567 3.30166771 33.36074269 7.19506836 40.0546875 C9.27595228 45.0836481 8.55874385 51.25803387 6.9375 56.3125 C2.32228435 62.71425073 -3.15751828 66.66346438 -11 68 C-21.81166062 68.92183633 -31.12504337 67.93747832 -41 63 C-41 57.72 -41 52.44 -41 47 C-38.69 47 -36.38 47 -34 47 C-33.49713066 48.9575985 -32.9977901 50.91610377 -32.5 52.875 C-32.2215625 53.96554688 -31.943125 55.05609375 -31.65625 56.1796875 C-31 59 -31 59 -31 61 C-23.99905401 62.55576578 -16.22082253 63.18661883 -9.4375 60.6875 C-5.19290296 57.78696783 -5.19290296 57.78696783 -3.125 53.1875 C-2.96067953 48.99732794 -3.47863816 47.38582876 -6 44 C-10.32504659 41.12266775 -15.2221473 39.320075 -20.00390625 37.34375 C-20.70427002 37.04911865 -21.40463379 36.7544873 -22.1262207 36.45092773 C-23.50789885 35.87293868 -24.8956197 35.30912035 -26.28979492 34.76196289 C-31.31953375 32.67312659 -34.41612976 30.12145077 -38 26 C-40.08582943 19.74251171 -40.1346802 12.39543597 -37.3125 6.4375 C-27.14912984 -4.27524152 -13.39097756 -5.46892025 0 0 Z " fill="#202020" transform="translate(402,29)"/>
<path d="M0 0 C10.23 0 20.46 0 31 0 C31 3.63 31 7.26 31 11 C20.77 11 10.54 11 0 11 C0 7.37 0 3.74 0 0 Z " fill="#640583" transform="translate(211,0)"/>
<path d="M0 0 C0.66 0 1.32 0 2 0 C3.13335166 2.26670332 3.12343812 3.48388875 3.12025452 5.99893188 C3.12162918 6.83468246 3.12300385 7.67043304 3.12442017 8.5315094 C3.12082489 9.45004196 3.11722961 10.36857452 3.11352539 11.31494141 C3.11367142 12.28083694 3.11381744 13.24673248 3.1139679 14.24189758 C3.11326937 17.44514181 3.10547978 20.64832839 3.09765625 23.8515625 C3.09579186 26.06830819 3.09436805 28.28505429 3.09336853 30.50180054 C3.08954504 36.34453463 3.07971617 42.18724397 3.06866455 48.02996826 C3.05844682 53.98872544 3.05387013 59.9474866 3.04882812 65.90625 C3.03809377 77.60417756 3.02101935 89.30208672 3 101 C2.01 101 1.02 101 0 101 C0 67.67 0 34.34 0 0 Z " fill="#06AF96" transform="translate(225,27)"/>
<path d="M0 0 C1.32 0 2.64 0 4 0 C3.67 1.32 3.34 2.64 3 4 C1.68 3.67 0.36 3.34 -1 3 C-0.67 2.01 -0.34 1.02 0 0 Z " fill="#BC0730" transform="translate(198,7)"/>
<path d="M0 0 C1.32 0 2.64 0 4 0 C3.67 1.32 3.34 2.64 3 4 C2.01 4 1.02 4 0 4 C-0.33 3.01 -0.66 2.02 -1 1 C-0.67 0.67 -0.34 0.34 0 0 Z " fill="#FA8800" transform="translate(251,7)"/>
<path d="M0 0 C1.32 0 2.64 0 4 0 C4 0.99 4 1.98 4 3 C2.68 3 1.36 3 0 3 C0 2.01 0 1.02 0 0 Z " fill="#5C038D" transform="translate(263,77)"/>
<path d="M0 0 C0.99 0.33 1.98 0.66 3 1 C2.67 1.99 2.34 2.98 2 4 C1.01 3.67 0.02 3.34 -1 3 C-0.67 2.01 -0.34 1.02 0 0 Z " fill="#650484" transform="translate(259,70)"/>
<path d="M0 0 C1.32 0 2.64 0 4 0 C4 0.99 4 1.98 4 3 C2.68 3 1.36 3 0 3 C0 2.01 0 1.02 0 0 Z " fill="#0BB58C" transform="translate(263,35)"/>
<path d="M0 0 C1.32 0 2.64 0 4 0 C4 0.99 4 1.98 4 3 C2.68 3 1.36 3 0 3 C0 2.01 0 1.02 0 0 Z " fill="#4A0AD5" transform="translate(185,35)"/>
<path d="M0 0 C0.99 0.33 1.98 0.66 3 1 C2.67 1.99 2.34 2.98 2 4 C1.01 3.67 0.02 3.34 -1 3 C-0.67 2.01 -0.34 1.02 0 0 Z " fill="#040E64" transform="translate(260,14)"/>
<path d="M0 0 C0.99 0.33 1.98 0.66 3 1 C2.67 1.99 2.34 2.98 2 4 C1.01 3.67 0.02 3.34 -1 3 C-0.67 2.01 -0.34 1.02 0 0 Z " fill="#B30533" transform="translate(190,14)"/>
<path d="M0 0 C0.99 0 1.98 0 3 0 C3 1.32 3 2.64 3 4 C2.01 3.67 1.02 3.34 0 3 C0 2.01 0 1.02 0 0 Z " fill="#680482" transform="translate(251,100)"/>
<path d="M0 0 C1.32 0 2.64 0 4 0 C3.67 0.99 3.34 1.98 3 3 C2.01 2.67 1.02 2.34 0 2 C0 1.34 0 0.68 0 0 Z " fill="#4107D9" transform="translate(192,22)"/>
<path d="M0 0 C1.32 0.33 2.64 0.66 4 1 C3.67 1.66 3.34 2.32 3 3 C2.01 3 1.02 3 0 3 C0 2.01 0 1.02 0 0 Z " fill="#FB9300" transform="translate(245,1)"/>
<path d="M0 0 C0.99 0 1.98 0 3 0 C3 0.99 3 1.98 3 3 C2.01 3 1.02 3 0 3 C0 2.01 0 1.02 0 0 Z " fill="#640583" transform="translate(186,77)"/>
<path d="M0 0 C0.99 0 1.98 0 3 0 C3 0.99 3 1.98 3 3 C2.01 3 1.02 3 0 3 C0 2.01 0 1.02 0 0 Z " fill="#0CB48D" transform="translate(260,50)"/>
<path d="M0 0 C0.99 0 1.98 0 3 0 C3 0.99 3 1.98 3 3 C2.01 3 1.02 3 0 3 C0 2.01 0 1.02 0 0 Z " fill="#792205" transform="translate(189,50)"/>
<path d="M0 0 C0.99 0 1.98 0 3 0 C3 0.99 3 1.98 3 3 C2.01 3 1.02 3 0 3 C0 2.01 0 1.02 0 0 Z " fill="#05116C" transform="translate(257,22)"/>
<path d="M0 0 C0.99 0 1.98 0 3 0 C3 0.99 3 1.98 3 3 C2.01 3 1.02 3 0 3 C0 2.01 0 1.02 0 0 Z " fill="#F98700" transform="translate(251,1)"/>
<path d="M0 0 C0.99 0 1.98 0 3 0 C3 0.99 3 1.98 3 3 C2.01 3 1.02 3 0 3 C0 2.01 0 1.02 0 0 Z " fill="#650583" transform="translate(204,1)"/>
<path d="M0 0 C0.99 0 1.98 0 3 0 C3 0.99 3 1.98 3 3 C2.01 3 1.02 3 0 3 C0 2.01 0 1.02 0 0 Z " fill="#650585" transform="translate(198,1)"/>
</svg>
